<svg xmlns="http://www.w3.org/2000/svg" viewBox="0 0 200 200">
  <path fill="black" d="M125.29,17.60 C131.27,21.22 136.99,22.20 143.87,22.90 C153.57,24.21 160.55,27.33 166.64,35.26 C168.80,38.97 170.03,42.97 171.41,47.02 C175.07,57.16 179.39,65.12 187.33,72.44 C192.94,77.96 193.95,84.50 194.59,92.00 C194.52,99.40 191.37,106.55 188.08,113.08 C186.58,117.84 187.01,122.31 187.20,127.26 C187.36,136.42 186.81,144.02 182.27,152.21 C181.86,152.95 181.45,153.70 181.03,154.47 C176.60,160.79 169.67,163.66 163.03,167.16 C156.06,170.97 151.78,175.29 147.61,182.09 C142.84,189.08 135.64,193.62 127.29,195.23 C121.21,195.67 116.51,195.00 110.63,193.37 C103.16,191.38 97.46,191.60 90.04,193.51 C80.39,195.99 71.59,196.00 62.60,191.27 C56.41,187.24 52.78,181.80 48.58,175.83 C45.09,171.33 41.47,169.07 36.45,166.55 C25.01,160.44 18.42,154.45 14.42,141.95 C13.34,137.32 13.67,132.94 13.97,128.23 C14.30,118.98 12.72,112.12 9.15,103.64 C5.52,94.99 5.41,89.23 8.36,80.42 C10.78,74.84 14.17,71.42 18.58,67.32 C25.23,60.59 27.72,51.94 30.53,43.12 C33.63,34.26 39.44,28.73 47.81,24.69 C52.25,23.14 56.59,22.71 61.25,22.22 C69.07,21.24 74.45,18.73 81.01,14.46 C97.23,4.00 110.06,7.11 125.29,17.60 Z"/>
</svg>